<svg width="220" height="32" viewBox="0 0 220 32" fill="none" xmlns="http://www.w3.org/2000/svg">
<g clip-path="url(#clip0_64_1127)">
<path d="M44.9257 25.9462L29.6017 19.9429C27.7988 19.2325 25.8868 18.8717 23.9748 18.8717H23.9359C22.0239 18.8717 20.1119 19.2325 18.309 19.9429L2.98185 25.9368L2.89295 25.7273L23.953 8.24495L45.0131 25.7352L44.9242 25.9447L44.9257 25.9462ZM23.953 0L0 19.872L2.36739 25.6454L2.52646 26.036L2.55609 26.1053L2.81341 26.726L4.97338 32L20.5953 25.8754C21.6652 25.4548 22.7943 25.2342 23.9343 25.2342H23.9733C25.1133 25.2342 26.2424 25.4548 27.3123 25.8754L42.9342 32L45.1441 26.6268L45.1831 26.5165L45.3515 26.1069L45.3811 26.0376L45.4997 25.7572L45.5496 25.6469L47.9076 19.883L23.953 0Z" fill="#1A1A1A"/>
<path d="M76.6202 17.3593L73.0239 10.436L69.4276 17.3593H76.6202ZM70.29 6.00006H75.7453L86.2644 25.9997H80.8902L78.4106 21.1967H67.6201L65.156 25.9997H59.7803L70.2869 6.00006H70.29Z" fill="#1A1A1A"/>
<path d="M89.3828 6.00024H94.4201L103.447 16.5435L112.484 6.00024H117.522V25.9999H112.632V12.191L104.819 21.2236H102.087L94.2735 12.191V25.9999H89.3828V6.00024Z" fill="#1A1A1A"/>
<path d="M136.283 15.2643C136.893 15.2643 137.42 15.2044 137.864 15.0815C138.309 14.9587 138.675 14.7838 138.962 14.5523C139.251 14.3207 139.461 14.0387 139.595 13.7063C139.73 13.3755 139.797 12.9943 139.797 12.5564C139.797 12.1421 139.73 11.7609 139.595 11.4159C139.461 11.0709 139.251 10.7858 138.962 10.5637C138.675 10.3416 138.309 10.173 137.864 10.0533C137.42 9.93672 136.893 9.87843 136.283 9.87843H127.958V15.2643H136.283ZM123.067 6.00012H136.631C137.995 6.00012 139.177 6.16237 140.172 6.49003C141.171 6.81454 141.999 7.27294 142.658 7.85579C143.318 8.44336 143.806 9.13491 144.127 9.93672C144.446 10.7385 144.605 11.6144 144.605 12.5548C144.605 13.4952 144.446 14.401 144.127 15.2107C143.808 16.0157 143.318 16.7088 142.658 17.2853C141.999 17.8619 141.171 18.3124 140.172 18.6385C139.176 18.9662 137.995 19.1284 136.631 19.1284H127.957V25.9997H123.067V6.00012Z" fill="#1A1A1A"/>
<path d="M148.512 6.00012H168.433V9.90364H153.401V14.0009H166.495V17.8099H153.401V22.0946H168.475V25.9997H148.512V6.00012Z" fill="#1A1A1A"/>
<path d="M186.11 14.5839C186.829 14.5839 187.437 14.5382 187.935 14.4422C188.434 14.3461 188.833 14.2043 189.134 14.0153C189.433 13.8231 189.65 13.5805 189.78 13.2859C189.909 12.9913 189.975 12.64 189.975 12.2321C189.975 11.8241 189.909 11.4602 189.78 11.1656C189.65 10.871 189.433 10.6284 189.134 10.4362C188.833 10.2472 188.434 10.1054 187.935 10.0157C187.437 9.92271 186.829 9.88018 186.11 9.88018H178.082V14.5871H186.11V14.5839ZM173.192 5.99872H186.447C187.911 5.99872 189.168 6.14364 190.219 6.43192C191.269 6.72334 192.136 7.13764 192.819 7.67795C193.502 8.21827 194 8.86728 194.316 9.62971C194.63 10.3921 194.787 11.2475 194.787 12.2021C194.787 13.0449 194.658 13.8105 194.397 14.4989C194.137 15.1888 193.732 15.7953 193.178 16.3151C192.626 16.8381 191.921 17.2635 191.063 17.588C190.205 17.9156 189.175 18.1283 187.972 18.2275L196.862 25.9967H190.263L181.64 18.4055H178.085V25.9967H173.196V6.00029L173.192 5.99872Z" fill="#1A1A1A"/>
<path d="M200.037 6.00018H219.959V9.9037H204.926V14.001H218.02V17.81H204.926V22.0947H220.001V25.9998H200.037V6.00018Z" fill="#1A1A1A"/>
</g>
<defs>
<clipPath id="clip0_64_1127">
<rect width="220" height="32" fill="white"/>
</clipPath>
</defs>
</svg>
