<svg width="215" height="30" viewBox="0 0 215 30" xmlns="http://www.w3.org/2000/svg" xmlns:xlink="http://www.w3.org/1999/xlink">
    <defs>
        <path id="a" d="M0 0h80.543v19.556H0z"/>
    </defs>
    <g fill="none" fill-rule="evenodd">
        <path d="M214.037 9.752c1.27-3.265 1.284-5.657.04-7.172-.643-.783-1.607-1.364-2.893-1.742-1.202-.354-2.685-.531-4.45-.531-1.772 0-3.399.177-4.88.53-1.582.38-2.998.96-4.246 1.743-2.416 1.515-4.258 3.907-5.53 7.172-1.278 3.286-1.306 5.687-.074 7.2 1.005 1.239 2.827 1.97 5.47 2.197.591.051 1.224.076 1.898.076.67 0 1.32-.025 1.95-.076 2.809-.226 5.2-.958 7.174-2.196 2.414-1.514 4.262-3.915 5.54-7.2zM102.752.307h-2.25a5.406 5.406 0 0 0-2.858.89 5.271 5.271 0 0 0-1.901 2.253l-6.136 15.775h9.544L94.958 30l12.682-15.692H97.304L102.752.307zm10.14 18.918h10.707l.05-.127c1.024-2.636-.292-4.794-2.926-4.792l-5.918.003.93-2.393h9.792l.326-.837c.742-1.907-.208-3.463-2.115-3.463h-6.329l.93-2.39h10.707l.05-.127c1.025-2.636-.291-4.792-2.926-4.792h-11.672l-7.361 18.918h5.755zm23.497 0c-1.631 0-3.056-.249-4.254-.744-1.2-.478-2.143-1.151-2.822-2.017-.67-.853-1.056-1.874-1.182-3.043-.117-1.188.098-2.463.633-3.836a12.347 12.347 0 0 1 2.33-3.78 15.97 15.97 0 0 1 3.509-2.935 17.332 17.332 0 0 1 4.346-1.901 17.516 17.516 0 0 1 4.802-.662h5.518l-.05.13c-1.028 2.64-4.017 4.792-6.656 4.792h-.728c-.786 0-1.56.103-2.315.334a8.198 8.198 0 0 0-2.139.963 7.349 7.349 0 0 0-1.708 1.438 6.09 6.09 0 0 0-1.157 1.875c-.259.666-.375 1.3-.318 1.854.063.554.265 1.025.616 1.426.342.397.804.703 1.41.913 1.022.378 1.647.274 2.807.274 2.635 0 3.951 2.157 2.926 4.792l-.05.127h-5.518zM157.2 5.226h-8.434l.05-.128c1.025-2.635 4.02-4.791 6.654-4.791h17.834l-.05.127c-1.025 2.636-4.02 4.792-6.654 4.792h-3.644l-3.583 9.207c-1.026 2.636-4.02 4.792-6.655 4.792h-.965L157.2 5.226zm26.815 3.764a5.628 5.628 0 0 1-2.51.565h-4.634l1.683-4.327h4.635c1.02 0 1.737.181 2.161.552.424.368.49.92.204 1.655-.257.66-.769 1.179-1.539 1.555zm1.041 3.94c.826-.234.985-.285 1.757-.646a9.382 9.382 0 0 0 2.082-1.343 10.073 10.073 0 0 0 1.67-1.782 9.138 9.138 0 0 0 1.154-2.094c.53-1.358.654-2.47.38-3.338a3.844 3.844 0 0 0-1.53-2.062c-.744-.51-1.652-.865-2.724-1.063a17.734 17.734 0 0 0-3.218-.295h-9.913l-7.36 18.918h5.754l2.088-5.365h2.775l1.672 3.745c.474 1.063 1.45 1.62 2.834 1.62h5.389l-2.81-6.296zm19.703-7.546c.863 0 1.744.035 2.542.176.533.094 1.05.274 1.383.623.305.321.402.769.371 1.274-.041.71-.316 1.553-.605 2.295-.289.744-.67 1.587-1.181 2.298-.367.51-.815.959-1.372 1.287-.608.36-1.258.546-1.87.64-.908.139-1.816.173-2.68.173-.862 0-1.744-.034-2.543-.173-.538-.094-1.048-.28-1.375-.64-.3-.328-.401-.778-.37-1.287.042-.71.32-1.555.608-2.298.289-.741.67-1.585 1.179-2.295.363-.505.81-.953 1.363-1.275.604-.349 1.266-.528 1.87-.622.908-.14 1.817-.176 2.68-.176z" fill="#007FFF"/>
        <g>
            <mask id="b" fill="#fff">
                <use xlink:href="#a"/>
            </mask>
            <path d="M5.692.306h-.273C2.438.306.02 2.767.02 5.804L0 19.224h5.671V11.94h3.092c2.342 0 4.24-1.934 4.24-4.32H5.671l.02-7.314zm74.85 9.997V9.23c-.094-3.104-1.025-5.398-2.792-6.88C75.885.783 73.093 0 69.375 0c-3.734 0-6.532.784-8.39 2.35-1.86 1.566-2.787 4.038-2.787 7.414 0 3.397.922 5.877 2.776 7.443 1.852 1.566 4.65 2.349 8.4 2.349 3.734 0 6.529-.783 8.39-2.349 1.757-1.481 2.684-3.783 2.779-6.904zm-61.867 8.921h-5.672V7.621l-.002-1.827C13 2.757 15.418.296 18.4.296h.272l.002 18.928zm7.572-14.01h9.68c-.904-4.33-5.65-4.921-5.65-4.921h-9.822v18.931h15.6v-4.87h-9.808v-2.573h9.809V7.48h-9.81V5.214zm48.625 7.026c-.204.633-.536 1.13-.995 1.486-.46.36-1.055.598-1.793.722-.74.12-1.64.184-2.71.184-1.067 0-1.969-.063-2.709-.184-.737-.124-1.336-.363-1.795-.722-.457-.356-.79-.853-.995-1.486-.205-.632-.307-1.456-.307-2.476s.102-1.842.307-2.474c.205-.632.538-1.125.995-1.475.459-.346 1.057-.581 1.795-.703.74-.126 1.642-.187 2.71-.187 1.07 0 1.969.061 2.709.187.738.122 1.333.357 1.793.703.46.35.79.843.995 1.475.206.632.309 1.455.309 2.474 0 1.02-.103 1.844-.31 2.476zm-21.725 1.77c-.39-.378-.742-.69-1.058-.935a6.168 6.168 0 0 0 2.047-.779 5.726 5.726 0 0 0 2.493-3.127c.223-.66.335-1.36.335-2.094 0-1.359-.303-2.472-.907-3.34a6.674 6.674 0 0 0-2.298-2.064A9.91 9.91 0 0 0 50.668.608a19.112 19.112 0 0 0-3.284-.295h-9.768V19.24h5.764v-.093h.011v-5.275h2.631l4.394 5.368h7.716l-3.427-3.677c-.65-.658-1.168-1.178-1.558-1.554zM50.111 9c-.615.377-1.364.566-2.258.566h-4.462v-4.33h4.462c1.006 0 1.781.182 2.341.553.56.368.836.92.836 1.655 0 .66-.305 1.18-.92 1.556z" fill="red" mask="url(#b)"/>
        </g>
    </g>
</svg>
