<svg id="Layer_1" data-name="Layer 1" xmlns="http://www.w3.org/2000/svg" xmlns:xlink="http://www.w3.org/1999/xlink" viewBox="0 0 128 72"><defs><style>.cls-1{fill:none;}.cls-2{clip-path:url(#clip-path);}.cls-3{fill:#96bb2c;}.cls-3,.cls-4{fill-rule:evenodd;}.cls-4{fill:#727271;}.cls-5{fill:#5b5b5b;}</style><clipPath id="clip-path"><rect class="cls-1" x="-25.5" y="-27.28" width="179" height="126.57"/></clipPath></defs><g class="cls-2"><path class="cls-3" d="M63.9,1C39.19,1,19.17,9,19.17,18.86s20,17.9,44.73,17.9,44.74-8,44.74-17.9S88.61,1,63.9,1M25.13,18.86c0-8.25,17.36-14.94,38.77-14.94,1.49,0,3,0,4.4.09C66.92,6.42,49.82,20.08,48.2,20.79a10.2,10.2,0,0,1-5.33.47c-.56-.19-.66-.45-.76-1.31-1.25,1.44-2.49,2.9-3.67,4.41,2.26-.18,5-1.1,6.91-.38.95.35,8.66,6.89,11.28,9.56C38.69,32.23,25.13,26.16,25.13,18.86ZM69.45,33.65c-1.85-.94-11.37-8.42-11.35-9.43s17.95-13.9,24.26-18.5h0c12.1,2.52,20.32,7.46,20.32,13.14C102.68,26.39,88.24,32.62,69.45,33.65Z"/><path class="cls-4" d="M52.91,47.75c.1-.7.29-1.29.33-2H42.4c-.27.54-.25,1.37-.47,2,1.1,0,2.39-.09,3.37.06q-1.52,7.92-3,15.85h3.9c1.1-5.26,2-10.67,3.17-15.91,1.17,0,2.32.08,3.57.06"/><path class="cls-4" d="M9.84,52.93c3.19-.68,3.56-4,4.1-7.22H10.38c-.31,2.57-.73,5.38-2.83,6.06.35-2,.77-4,1.08-6.06H5.07a.16.16,0,0,0-.14.19C3.72,51.78,2.49,57.64,1.36,63.6H5.2c.72-3.17,1.15-6.62,2-9.65,1.28-.13,1.48,1,1.56,1.92C9,58.52,8,61.45,7.55,63.6H11c.19-1.92,1.15-5.11,1.34-7.48.17-2.18-.84-2.78-2.49-3.19"/><path class="cls-4" d="M15.58,45.71c-1.25,5.88-2.37,11.88-3.51,17.89h3.77c1.14-6,2.36-11.87,3.44-17.89Z"/><path class="cls-4" d="M20.76,45.76C19.42,51.62,18.27,57.67,17,63.6h4c1-5.29,2-10.57,3.1-15.74,3-.69,1.95,2.67,1.61,4.34-.78,3.89-1.59,7.93-2.29,11.4h3.84C28,60.16,28.85,55.72,29.58,52a13.4,13.4,0,0,0,.54-4.08c-.44-3.38-5.66-1.8-9.36-2.17"/><path class="cls-4" d="M54.37,45.71c-1.31,5.84-2.33,12-3.57,17.89h3.85c1.09-6,2.33-11.89,3.43-17.89Z"/><path class="cls-4" d="M68.43,50.18c.88-5.18-4.65-5-6.78-3.71-2.41,1.47-3.52,5.07-4.17,8-.81,3.75-.49,7.86,2.56,8.8,3.72,1.15,5.75-1.34,6.73-3.65H63.24c-.47.34-.64,1.39-1.52,1.27s-.84-2.27-.74-3.47a26.89,26.89,0,0,1,1.55-7.13c.25-.74.75-2.78,2-2.25.61.27.36,1.4.34,2.1Z"/><path class="cls-3" d="M33.29,46.44c-2.06,1.26-2.21,4.45-2.83,7.33-.27,1.23-.53,2.33-.74,3.35a10.76,10.76,0,0,0-.41,3.6c.52,3.29,4.48,2.87,8.42,2.85.13-.66.29-1.33.41-2-2.2,0-4.77.28-5.06-1.35s.93-4.5,1-6.13h5.62c.14-.79.36-1.62.48-2.41H34.64c.49-1,.33-2.21.94-3,.89-1.2,3.38-.75,5.32-.74,0-.73.36-1.39.43-2.1-3.54,0-6.18-.51-8,.62"/><path class="cls-3" d="M126.59,47.93c-.44-3.38-5.66-1.8-9.36-2.17-1.33,5.86-2.49,11.91-3.76,17.84h4c1-5.29,2-10.57,3.1-15.74,3-.69,2,2.67,1.61,4.34-.78,3.89-1.59,7.93-2.28,11.4h3.83c.73-3.44,1.56-7.88,2.29-11.59a19.36,19.36,0,0,0,.58-3.43v-.09a3.52,3.52,0,0,0,0-.56"/><path class="cls-3" d="M97.3,60.22c-.29-1.7.92-4.5.94-6.13h5.63c.13-.79.36-1.62.48-2.41h-5.5c.5-1,.34-2.21.94-3,.89-1.2,3.39-.75,5.33-.74,0-.73.35-1.39.42-2.1-3.54,0-6.17-.51-8,.62-2.06,1.26-2.21,4.45-2.83,7.33-.27,1.23-.54,2.33-.74,3.35a10.51,10.51,0,0,0-.41,3.6C94,64,98,63.59,101.94,63.57c.13-.66.29-1.33.41-2-2.19,0-4.76.28-5-1.35"/><path class="cls-3" d="M107.65,60.22c-.29-1.7.93-4.5.95-6.13h5.62c.13-.79.35-1.62.48-2.41h-5.5c.5-1,.34-2.21.94-3,.89-1.2,3.39-.75,5.33-.74,0-.73.35-1.39.42-2.1-3.53,0-6.17-.51-8,.62-2.06,1.26-2.21,4.45-2.83,7.33-.27,1.23-.54,2.33-.74,3.35a10.51,10.51,0,0,0-.41,3.6c.51,3.29,4.47,2.87,8.42,2.85.12-.66.29-1.33.4-2-2.19,0-4.76.28-5-1.35"/><path class="cls-3" d="M92.31,45.71H85.62a.18.18,0,0,0-.14.19c-1.21,5.88-2.43,11.74-3.56,17.7h3.84s1.11-6,1.93-9.63c1.28-.13,1.56,1,1.64,1.9.19,2.65-.74,5.58-1.22,7.73h3.43c.19-1.92,1.16-5.11,1.35-7.48.17-2.18-.85-2.78-2.49-3.19,4.73.44,5.25-7.21,1.91-7.22m-4.17,6c.07-.45.78-3.93.8-4a3,3,0,0,1,.66-.09C92.49,47.68,90.55,51.48,88.14,51.75Z"/><path class="cls-3" d="M82.59,54.49l.17-.74H77.62L77,56.2h2a20.83,20.83,0,0,1-1.5,3.46s-.72,1.36-1.58,1.27c-1-.13-.85-2.27-.75-3.47,0-.27.05-.54.08-.8,0,0,0-.08,0-.13l.09-.73s0-.07,0-.11c.07-.5.15-1,.24-1.43a.09.09,0,0,0,0,0l.15-.67a.13.13,0,0,0,0-.06c.17-.7.36-1.37.58-2.07l.36-1.08c.25-.74.75-2.78,1.95-2.25.6.27.36,1.4.34,2.1h3.61c.88-5.18-4.65-5-6.78-3.71a7.89,7.89,0,0,0-2.85,3.69.43.43,0,0,1,0,.05c-.17.38-.32.77-.46,1.17a.36.36,0,0,1,0,.11c0,.11-.06.22-.1.33s0,.13-.07.2,0,.19-.08.28l-.09.32-.09.32-.09.36a1.33,1.33,0,0,0,0,.19l-.09.36a1.24,1.24,0,0,1,0,.16c0,.16-.07.33-.11.5-.81,3.75-.49,7.86,2.56,8.8,3.72,1.15,5.75-1.34,6.72-3.65h0a20.78,20.78,0,0,0,1.71-5.17"/><path class="cls-5" d="M124.51,71h1.14l.2-1.14h-1.14Zm-2.18,0h1.14l.21-1.14h-1.14Zm-2.18,0h1.15l.2-1.14h-1.14ZM70.28,71h1.14l.2-1.14H70.48ZM68.1,71h1.14l.21-1.14H68.31Zm-2.18,0h1.14l.21-1.14H66.13Zm54-2.28c0-1.19-.86-1.47-1.67-1.47a2.22,2.22,0,0,0-2.43,1.94c-.26,1.38.45,2,1.64,2a2.1,2.1,0,0,0,2.3-1.57h-1.07a1,1,0,0,1-1,.73c-.64,0-1-.4-.81-1.11a1.19,1.19,0,0,1,1.21-1.1c.42,0,.7.15.75.63Zm-6,2.28h1l.66-3.62h-1Zm.73-4.06h1l.15-.84h-1Zm-2.36.44h-.65l-.15.8h.66L111.79,70c-.13.66-.1,1.08.88,1.08a7,7,0,0,0,.82-.07l.15-.8a4.24,4.24,0,0,1-.51,0c-.28,0-.33-.09-.28-.38l.3-1.69H114l.15-.8h-.84l.2-1.12h-1Zm-2.48,2.54a1.06,1.06,0,0,1-1,.48.76.76,0,0,1-.85-.87v0h3l0-.11c.24-1.36-.28-2.15-1.64-2.15A2.23,2.23,0,0,0,107,69.17c-.25,1.38.49,2,1.73,2a2.29,2.29,0,0,0,2.19-1.22Zm-1.67-1.11h0a1.18,1.18,0,0,1,1.13-.81.74.74,0,0,1,.83.81h-2Zm-3,2.19h1l.44-2.41a1,1,0,0,0-1.12-1.3,1.87,1.87,0,0,0-1.4.62h0l.09-.53h-1L102.46,71h1l.31-1.75c.15-.77.6-1,1.09-1s.64.25.56.74Zm-4.36,0h1l.65-3.62h-1Zm.73-4.06h1l.14-.84h-1Zm-4.17,1.32.38-2.08H96.52L95.64,71h1.15l.26-1.43.78-.65,1,2.08h1.54L98.86,68.1l2.29-1.94H99.61ZM89.17,71h1l.19-1,.59-.46.75,1.5h1.37l-1.18-2.24,1.74-1.38H92.23l-1.62,1.35.48-2.63h-1Zm-1.74,0h1l.43-2.41a1,1,0,0,0-1.11-1.3,1.89,1.89,0,0,0-1.41.62h0l.1-.53h-1L84.81,71h1l.31-1.75c.14-.77.6-1,1.08-1s.65.25.56.74Zm-4.36,0h1l.65-3.62h-1Zm.74-4.06h1l.15-.84H84ZM78.71,71h1l.31-1.75c.14-.77.6-1,1.08-1s.65.25.56.74l-.37,2h1l.43-2.41c.19-1.06-.58-1.3-1.12-1.3a1.76,1.76,0,0,0-1.36.62h0l.32-1.81h-1Zm-3,0h1.14l.7-3.9h1.56l.17-.92H75l-.17.92h1.56Zm-10-2.28c0-1.19-.86-1.47-1.67-1.47a2.22,2.22,0,0,0-2.43,1.94c-.26,1.38.45,2,1.64,2a2.1,2.1,0,0,0,2.3-1.57H64.45a1,1,0,0,1-1,.73c-.64,0-1-.4-.81-1.11a1.19,1.19,0,0,1,1.21-1.1c.42,0,.7.15.75.63Zm-6,2.28h1l.66-3.62h-1Zm.73-4.06h1l.15-.84h-1ZM56.6,71h1l.28-1.56a1.19,1.19,0,0,1,1.24-1.11,1.8,1.8,0,0,1,.56.11l.2-1.12a2.4,2.4,0,0,0-.37,0,1.7,1.7,0,0,0-1.41.8h0l.13-.71h-1ZM55,67.36h-.65l-.15.8h.65L54.5,70c-.12.66-.09,1.08.89,1.08a7,7,0,0,0,.82-.07l.15-.8a4.24,4.24,0,0,1-.51,0c-.28,0-.33-.09-.29-.38l.31-1.69h.83l.15-.8H56l.2-1.12h-1ZM53.91,68.7c0-1.19-.86-1.47-1.67-1.47a2.22,2.22,0,0,0-2.43,1.94c-.25,1.38.45,2,1.64,2a2.12,2.12,0,0,0,2.31-1.57H52.69a1,1,0,0,1-1,.73c-.64,0-.95-.4-.81-1.11a1.19,1.19,0,0,1,1.21-1.1c.42,0,.71.15.75.63Zm-5.78,1.2a1,1,0,0,1-.94.48.76.76,0,0,1-.86-.87v0h3l0-.11c.25-1.36-.28-2.15-1.63-2.15a2.22,2.22,0,0,0-2.44,1.94c-.25,1.38.49,2,1.73,2a2.29,2.29,0,0,0,2.19-1.22Zm-1.67-1.11h0A1.2,1.2,0,0,1,47.6,68a.75.75,0,0,1,.83.81h-2Zm-3,2.19h1l.88-4.9h-1ZM38.9,71h4l.16-.91h-2.8l.2-1.11h2.64l.16-.88H40.57l.18-1h2.78l.17-.92H39.77Zm-6.47,0h1l.18-1,.59-.46L35,71h1.37l-1.19-2.24,1.75-1.38H35.49l-1.62,1.35.48-2.63h-1Zm-1.74,0h1l.44-2.41c.19-1.06-.58-1.3-1.12-1.3a1.88,1.88,0,0,0-1.4.62h0l.09-.53h-1L28.07,71h1l.31-1.75c.14-.77.6-1,1.08-1s.65.25.56.74Zm-4.36,0h1L28,67.36H27Zm.74-4.06h1l.15-.84h-1ZM22,71h1l.31-1.75c.14-.77.6-1,1.08-1s.65.25.56.74l-.37,2h1l.44-2.41c.19-1.06-.58-1.3-1.12-1.3a1.74,1.74,0,0,0-1.36.62h0l.33-1.81h-1Zm-3,0h1.14l.71-3.9h1.56l.16-.92H18.23l-.16.92h1.56Z"/></g></svg>